<?xml version="1.0" encoding="UTF-8" standalone="no"?>
<!-- Created with Inkscape (http://www.inkscape.org/) -->

<svg
   xmlns:dc="http://purl.org/dc/elements/1.1/"
   xmlns:cc="http://creativecommons.org/ns#"
   xmlns:rdf="http://www.w3.org/1999/02/22-rdf-syntax-ns#"
   xmlns:svg="http://www.w3.org/2000/svg"
   xmlns="http://www.w3.org/2000/svg"
   xmlns:sodipodi="http://sodipodi.sourceforge.net/DTD/sodipodi-0.dtd"
   xmlns:inkscape="http://www.inkscape.org/namespaces/inkscape"
   version="1.1"
   id="svg824"
   width="240"
   height="308"
   viewBox="0 0 240 308"
   sodipodi:docname="puppetgirl.svg"
   inkscape:version="0.92.2 (5c3e80d, 2017-08-06)">
  <metadata
     id="metadata830">
    <rdf:RDF>
      <cc:Work
         rdf:about="">
        <dc:format>image/svg+xml</dc:format>
        <dc:type
           rdf:resource="http://purl.org/dc/dcmitype/StillImage" />
        <dc:title></dc:title>
      </cc:Work>
    </rdf:RDF>
  </metadata>
  <defs
     id="defs828" />
  <sodipodi:namedview
     pagecolor="#ffffff"
     bordercolor="#666666"
     borderopacity="1"
     objecttolerance="10"
     gridtolerance="10"
     guidetolerance="10"
     inkscape:pageopacity="0"
     inkscape:pageshadow="2"
     inkscape:window-width="1368"
     inkscape:window-height="849"
     id="namedview826"
     showgrid="false"
     inkscape:zoom="1.0836182"
     inkscape:cx="70.141025"
     inkscape:cy="112.69751"
     inkscape:window-x="-8"
     inkscape:window-y="-8"
     inkscape:window-maximized="1"
     inkscape:current-layer="svg824" />
  <path
     style="fill:#ffffff;stroke-width:1.33333337"
     d="m 76.652543,304.42136 c -6.96667,-1.06525 -13.23271,-2.49188 -13.92455,-3.17031 -0.78665,-0.77138 0.346,-11.60132 3.02344,-28.90893 5.07122,-32.78161 5.11061,-33.69599 1.49237,-34.64217 -1.61247,-0.42167 -2.45631,-1.46178 -2.0484,-2.52479 0.38153,-0.99424 5.81547,-17.60413 12.07542,-36.91087 9.99261,-30.8189 11.38172,-36.27754 11.38172,-44.72557 0,-6.48684 -0.5431,-9.81927 -1.66667,-10.22653 -0.91666,-0.33227 -20.13184,-3.52862 -42.70039,-7.10299 -22.56855,-3.57438 -41.4075297,-6.87268 -41.8644097,-7.32955 -1.32649,-1.3265 3.88899,-34.421078 5.52337,-35.048247 0.8133,-0.312096 20.5333197,2.448162 43.8222497,6.133908 23.28893,3.685749 42.61553,6.701359 42.94801,6.701359 0.33248,0 0.60451,-2.77952 0.60451,-6.1767 0,-5.882253 -0.40269,-6.545687 -8.44745,-13.917243 -28.7859,-26.377056 -19.31625,-71.739451 17.544047,-84.0410625 29.41339,-9.816309 60.18592,10.0466535 64.8165,41.8375595 2.03942,14.001484 -5.49401,33.079137 -16.84034,42.646509 -6.17939,5.210542 -6.4061,5.653826 -6.4061,12.526316 0,3.918541 0.4504,7.124621 1.00091,7.124621 0.55049,0 19.90008,-3 42.99909,-6.66667 23.09902,-3.666667 42.6546,-6.666667 43.4569,-6.666667 1.41557,0 7.89937,34.421507 6.70817,35.612707 -0.31849,0.31849 -19.38592,3.54293 -42.37207,7.16541 -22.98614,3.6225 -42.543,6.86051 -43.45966,7.1956 -1.11343,0.40702 -1.66667,3.66304 -1.66667,9.80906 0,7.98108 1.58968,14.05524 12,45.85197 6.6,20.15868 12,36.96763 12,37.3532 0,0.38557 -1.2,1.01484 -2.66667,1.39839 -1.46666,0.38354 -2.6631,1.80352 -2.65876,3.1555 0.004,1.35199 2.07102,15.35816 4.5926,31.12483 2.5216,15.76667 4.16804,29.04128 3.65878,29.49913 -35.36192,6.00656 -71.02392,7.78632 -102.925947,2.92223 z"
     id="path1377"
     inkscape:connector-curvature="0"
     sodipodi:nodetypes="ccsccsscsccsssssssssssssssssccccc" />
</svg>
